<svg xmlns="http://www.w3.org/2000/svg" xmlns:xlink="http://www.w3.org/1999/xlink" viewBox="0 0 43.62 43.62"><defs><style>.cls-1{fill:url(#未命名的渐变_68);}.cls-2{fill:url(#未命名的渐变_68-2);}.cls-3{fill:url(#未命名的渐变_68-3);}.cls-4{fill:url(#未命名的渐变_73);}.cls-5{fill:url(#未命名的渐变_68-4);}.cls-6{fill:url(#未命名的渐变_73-2);}.cls-7{fill:url(#未命名的渐变_77);}.cls-8{fill:url(#未命名的渐变_68-5);}.cls-9{fill:url(#未命名的渐变_68-6);}.cls-10{fill:url(#未命名的渐变_68-7);}.cls-11{fill:url(#未命名的渐变_78);}.cls-12{fill:url(#未命名的渐变_7);}.cls-13{fill:url(#未命名的渐变_80);}.cls-14{fill:url(#未命名的渐变_68-8);}.cls-15{fill:url(#未命名的渐变_73-3);}.cls-16{fill:url(#未命名的渐变_93);}.cls-17,.cls-18,.cls-19,.cls-20,.cls-21,.cls-22,.cls-23,.cls-24,.cls-25,.cls-26,.cls-27,.cls-28,.cls-29,.cls-30,.cls-31,.cls-32,.cls-33,.cls-34,.cls-35{fill-rule:evenodd;}.cls-17{fill:url(#未命名的渐变_17);}.cls-18{fill:url(#未命名的渐变_5);}.cls-19{fill:url(#未命名的渐变_19);}.cls-20{fill:url(#未命名的渐变_20);}.cls-21{fill:url(#未命名的渐变_31);}.cls-22{fill:url(#未命名的渐变_31-2);}.cls-23{fill:url(#未命名的渐变_31-3);}.cls-24{fill:url(#未命名的渐变_31-4);}.cls-25{fill:url(#未命名的渐变_31-5);}.cls-26{fill:url(#未命名的渐变_31-6);}.cls-27{fill:url(#未命名的渐变_16);}.cls-28{fill:url(#未命名的渐变_15);}.cls-29{fill:url(#未命名的渐变_31-7);}.cls-30{fill:url(#未命名的渐变_16-2);}.cls-31{fill:url(#未命名的渐变_15-2);}.cls-32{fill:url(#未命名的渐变_31-8);}.cls-33{fill:url(#未命名的渐变_16-3);}.cls-34{fill:url(#未命名的渐变_15-3);}.cls-35{fill:url(#未命名的渐变_31-9);}</style><linearGradient id="未命名的渐变_80" x1="83.69" y1="23.45" x2="72.38" y2="23.45" gradientUnits="userSpaceOnUse"><stop offset="0.59" stop-color="#33007c"/><stop offset="0.98" stop-color="#01004d"/></linearGradient><linearGradient id="未命名的渐变_68-8" x1="198.07" y1="23.62" x2="169.86" y2="23.62" xlink:href="#未命名的渐变_68"/><linearGradient id="未命名的渐变_73-3" x1="180.35" y1="23.13" x2="185.61" y2="29.19" xlink:href="#未命名的渐变_73"/><linearGradient id="未命名的渐变_93" x1="242.34" y1="23.61" x2="229.4" y2="23.61" gradientUnits="userSpaceOnUse"><stop offset="0" stop-color="#5600a7"/><stop offset="1" stop-color="#01004d"/></linearGradient><linearGradient id="未命名的渐变_17" x1="73.05" y1="-1326.07" x2="98.62" y2="-1312.05" gradientTransform="matrix(1, 0, 0, -1, -66.61, -1307.83)" gradientUnits="userSpaceOnUse"><stop offset="0" stop-color="#00abe0"/><stop offset="1" stop-color="#0060d4"/></linearGradient><linearGradient id="未命名的渐变_5" x1="78.05" y1="-1321.64" x2="94.24" y2="-1312.76" gradientTransform="matrix(1, 0, 0, -1, -66.61, -1307.83)" gradientUnits="userSpaceOnUse"><stop offset="0" stop-color="#6ee3fa"/><stop offset="1" stop-color="#00abe0"/></linearGradient><linearGradient id="未命名的渐变_19" x1="67.88" y1="-1341.01" x2="85.69" y2="-1331.24" gradientTransform="matrix(1, 0, 0, -1, -66.61, -1307.83)" gradientUnits="userSpaceOnUse"><stop offset="0" stop-color="#1b008c"/><stop offset="1" stop-color="#cb00ff"/></linearGradient><linearGradient id="未命名的渐变_20" x1="66.61" y1="-1337.21" x2="83.61" y2="-1337.21" gradientTransform="matrix(1, 0, 0, -1, -66.61, -1307.83)" gradientUnits="userSpaceOnUse"><stop offset="0" stop-color="#9000d3"/><stop offset="1" stop-color="#ff5c7f"/></linearGradient><linearGradient id="未命名的渐变_31" x1="102.11" y1="-1319.69" x2="93.91" y2="-1319.69" gradientTransform="matrix(1, 0, 0, -1, -66.61, -1307.83)" gradientUnits="userSpaceOnUse"><stop offset="0" stop-color="#fff" stop-opacity="0.4"/><stop offset="1" stop-color="#fff" stop-opacity="0"/></linearGradient><linearGradient id="未命名的渐变_31-2" x1="82.08" y1="-1331.23" x2="73.88" y2="-1331.23" xlink:href="#未命名的渐变_31"/><linearGradient id="未命名的渐变_31-3" x1="82.08" y1="-1340.49" x2="77.13" y2="-1340.49" xlink:href="#未命名的渐变_31"/><linearGradient id="未命名的渐变_31-4" x1="82.08" y1="-1348.91" x2="77.12" y2="-1348.91" xlink:href="#未命名的渐变_31"/><linearGradient id="未命名的渐变_31-5" x1="94.82" y1="-1315.85" x2="86.63" y2="-1315.85" xlink:href="#未命名的渐变_31"/><linearGradient id="未命名的渐变_31-6" x1="87.61" y1="-1312" x2="79.41" y2="-1312" xlink:href="#未命名的渐变_31"/><linearGradient id="未命名的渐变_16" x1="106.55" y1="-1336.09" x2="88.74" y2="-1326.32" gradientTransform="matrix(1, 0, 0, -1, -66.61, -1307.83)" gradientUnits="userSpaceOnUse"><stop offset="0" stop-color="#cc522b"/><stop offset="1" stop-color="#df6c3b"/></linearGradient><linearGradient id="未命名的渐变_15" x1="105.12" y1="-1334.01" x2="88.12" y2="-1334.01" gradientTransform="matrix(1, 0, 0, -1, -66.61, -1307.83)" gradientUnits="userSpaceOnUse"><stop offset="0" stop-color="#fe7015"/><stop offset="1" stop-color="#ffa529"/></linearGradient><linearGradient id="未命名的渐变_31-7" x1="89.66" y1="-1331.23" x2="97.85" y2="-1331.23" xlink:href="#未命名的渐变_31"/><linearGradient id="未命名的渐变_16-2" x1="102.26" y1="-1343.93" x2="84.45" y2="-1334.15" xlink:href="#未命名的渐变_16"/><linearGradient id="未命名的渐变_15-2" x1="105.13" y1="-1339.08" x2="88.12" y2="-1339.08" xlink:href="#未命名的渐变_15"/><linearGradient id="未命名的渐变_31-8" x1="89.65" y1="-1340.49" x2="94.61" y2="-1340.49" xlink:href="#未命名的渐变_31"/><linearGradient id="未命名的渐变_16-3" x1="102.26" y1="-1352.31" x2="84.45" y2="-1342.54" xlink:href="#未命名的渐变_16"/><linearGradient id="未命名的渐变_15-3" x1="105.13" y1="-1347.47" x2="88.12" y2="-1347.47" xlink:href="#未命名的渐变_15"/><linearGradient id="未命名的渐变_31-9" x1="89.65" y1="-1348.88" x2="94.61" y2="-1348.88" xlink:href="#未命名的渐变_31"/></defs><g id="图层_2" data-name="图层 2"><g id="图层_1-2" data-name="图层 1"><path class="cls-17" d="M19,1.69,3,10.26V12L5,13,8.63,15l3.61,1.94,3.62,1.94,3.61,1.94,3.62-1.94L35.46,12.2V10.51l-2-1.06L19.47,17,15.86,15l12.37-6.7V6.63l-16,6.45L8.56,11.14,21,4.51V2.81Z"/><path class="cls-18" d="M19,0,3,8.57v1.69l2,1.07,3.62,1.94,3.61,1.94,3.62,1.93,3.61,1.94,3.62-1.94,12.37-6.63V8.82l-2-1.06-14,7.51-3.61-1.94,12.37-6.7V4.94l-2-1.06-14,7.51L8.63,9.45,21,2.82V1.13Z"/><path class="cls-19" d="M3.05,14.14,18.52,22.4v2.38l-1.52,1L5,19.4V36.23l-1.52,1-2-19.71V15.14ZM8.5,29.66V38L12,39.92l5,2.69,1.52-1V39.23L12,35.73V31.54l5,2.69,1.52-1V30.85L10,26.28l-1.52,1Z"/><path class="cls-20" d="M1.52,15.14,17,23.4v2.38l-1.52,1.06-12-6.44V37.23L0,35.35V16.21ZM7,30.66v8.39l3.49,1.87,5,2.69,1.52-1V40.23l-6.53-3.5V32.54l5,2.69,1.52-1V31.85L8.5,27.28,7,28.28Z"/><path class="cls-21" d="M27.28,14.9l8.18-4.39V8.82L27.28,13.2Z"/><path class="cls-22" d="M7.3,20l8.18,4.38v2.5L7.3,22.43Z"/><path class="cls-23" d="M10.53,30.1l5,2.69v2.44l-5-2.66Z"/><path class="cls-24" d="M10.53,38.55l5,2.63v2.44l-5-2.67Z"/><path class="cls-25" d="M20,11.1l8.25-4.47V4.94L20,9.39Z"/><path class="cls-26" d="M12.81,7.2,21,2.82V1.13L12.81,5.51Z"/><path class="cls-27" d="M35.46,14.14,20,22.4v2.38l1.52,1,12-6.38V36.23l1.53,1,2-19.71V15.14Z"/><path class="cls-28" d="M37,15.14,21.5,23.4v2.38L23,26.84,35,20.4V37.23l3.49-1.88V16.21Z"/><path class="cls-29" d="M31.21,20,23,24.34v2.5l8.18-4.4Z"/><path class="cls-30" d="M30,29.66v1.82l-3.48,1.87V31.54l-5,2.69-1.52-1V30.85l8.5-4.57,1.52,1Z"/><path class="cls-31" d="M31.53,30.66h0L28,32.54,27,33.12h0L23,35.23l-1.52-1V31.85L30,27.28l1.52,1Z"/><path class="cls-32" d="M23,32.79,28,30.1v2.47l-.43.23L23,35.22Z"/><path class="cls-33" d="M30,38.05v1.82l-3.48,1.87V39.92l-5,2.69-1.52-1V39.24l8.5-4.57,1.52,1Z"/><path class="cls-34" d="M31.53,39.05h0L28,40.93,27,41.51h0L23,43.61l-1.52-1V40.24L30,35.67l1.52,1Z"/><path class="cls-35" d="M23,41.17,28,38.48V41L23,43.61Z"/></g></g></svg>