<svg width="20" height="20" viewBox="0 0 20 20" fill="none" xmlns="http://www.w3.org/2000/svg">
<g clip-path="url(#clip0_5065_218)">
<path d="M20.1953 -0.172852H-0.14978V20.1722H20.1953V-0.172852Z" fill="#FECB17"/>
<path d="M16.5451 5.31445L16.5446 5.3158L15.2278 7.35505C15.6307 8.14971 15.8591 9.04772 15.8591 9.99961C15.8591 13.2353 13.236 15.8584 10.0003 15.8584C9.04967 15.8584 8.15274 15.6305 7.35885 15.2287L5.31897 16.5471C6.63831 17.4921 8.25368 18.0502 10.0003 18.0502C14.4465 18.0502 18.0509 14.4458 18.0509 9.99961C18.0509 8.25128 17.4918 6.63449 16.5451 5.31445Z" fill="#030E24"/>
<path d="M9.99936 14.0313C11.9813 14.0313 13.6291 12.6049 13.975 10.723C13.3477 10.5888 12.6974 10.5166 12.0301 10.5166C10.0208 10.5166 8.1625 11.1588 6.64502 12.2463C7.37148 13.3231 8.6027 14.0313 9.99936 14.0313Z" fill="#030E24"/>
<path d="M11.9923 9.78244C12.6961 9.78244 13.3816 9.85947 14.0428 10.0021C14.0428 10.0017 14.0428 10.0012 14.0428 10.0007C14.0428 7.76755 12.2324 5.9572 9.99927 5.9572C7.7661 5.9572 5.95573 7.76755 5.95573 10.0007C5.95573 10.1842 5.9694 10.3643 5.99319 10.5413C5.99277 10.5416 5.99241 10.5418 5.99199 10.5421C4.97374 11.3154 4.49086 11.9282 4.47555 11.9478C4.26001 11.3386 4.14051 10.684 4.14051 10.0007C4.14051 6.76503 6.76355 4.14197 9.99925 4.14197C10.9468 4.14197 11.8409 4.36828 12.6329 4.76766L14.674 3.44855C13.3559 2.50641 11.743 1.9502 9.99926 1.9502C5.5531 1.9502 1.94873 5.55454 1.94873 10.0007C1.94873 11.7903 2.53355 13.4426 3.52153 14.7789C3.90316 14.0899 4.36641 13.4529 4.89819 12.8799C4.89819 12.8799 5.69224 12.0513 6.30067 11.6347C7.89824 10.4709 9.8644 9.78244 11.9923 9.78244Z" fill="#030E24"/>
</g>
<defs>
<clipPath id="clip0_5065_218">
<rect width="20" height="20" rx="10" fill="white"/>
</clipPath>
</defs>
</svg>
