<svg xmlns="http://www.w3.org/2000/svg" width="24" height="24" viewBox="0 0 24 24" fill="none">
  <g clip-path="url(#clip0_1858_8481)">
    <path d="M0 12C0 5.37258 5.37258 0 12 0C18.6274 0 24 5.37258 24 12C24 18.6274 18.6274 24 12 24C5.37258 24 0 18.6274 0 12Z" fill="black"/>
    <path d="M17.6256 6.00078C17.6237 6.12301 17.6208 6.24524 17.613 6.36747C17.5433 7.48996 17.125 8.58713 16.4291 9.47051C16.1623 9.81919 15.836 10.1148 15.5292 10.427C13.6792 12.278 11.8281 14.1275 9.97814 15.979C9.44441 16.5059 9.13857 17.2486 9.1376 17.9981C8.21136 17.9985 7.28513 17.999 6.35938 17.9976C6.36132 17.8914 6.36375 17.7857 6.36814 17.6801C6.43778 16.3438 7.00804 15.0411 7.94304 14.0842C9.96255 12.0637 11.9835 10.0442 14.003 8.02321C14.5387 7.49581 14.8455 6.7517 14.8469 6.00077C15.7732 6.00029 16.6994 5.99931 17.6256 6.00078Z" fill="white"/>
    <path d="M17.4762 16.6941C17.577 17.1202 17.6257 17.558 17.6277 17.9958C16.7014 17.9978 15.7747 17.9934 14.8485 17.9978C14.8451 17.4319 14.677 16.8665 14.3566 16.399C13.985 15.8448 13.4124 15.4353 12.7734 15.2483C13.4737 14.5504 14.1706 13.8497 14.8714 13.1523C16.1696 13.9179 17.1344 15.2254 17.4762 16.6941Z" fill="white"/>
    <path d="M11.2141 8.74755C10.5143 9.44588 9.81695 10.1462 9.11618 10.844C7.97032 10.1656 7.07913 9.06944 6.65546 7.80621C6.45872 7.22573 6.36132 6.61311 6.35938 6.00049C7.2861 6 8.21234 6.00049 9.13907 6C9.14053 6.64574 9.36454 7.28807 9.77214 7.78966C10.1393 8.24742 10.6511 8.58344 11.2141 8.74755Z" fill="white"/>
    <path d="M10.6017 6C10.5994 6.20272 10.6413 6.4057 10.7329 6.59099C11.0105 7.21627 11.7872 7.55083 12.4325 7.31903C12.9949 7.14512 13.3831 6.57867 13.3843 6H10.6017Z" fill="white"/>
    <path d="M13.3882 17.9987C13.3891 17.8706 13.3712 17.7419 13.3323 17.6169C13.2831 17.4435 13.1998 17.2805 13.0883 17.1393C12.6832 16.6012 11.8699 16.4468 11.2948 16.7974C10.8655 17.0358 10.6103 17.5166 10.6055 17.9987H13.3882Z" fill="white"/>
  </g>
  <defs>
    <clipPath id="clip0_1858_8481">
      <rect width="24" height="24" fill="white"/>
    </clipPath>
  </defs>
</svg>